<?xml version="1.0" standalone="no"?>
<svg viewBox="0 0 640 640" version="1.1"
     xmlns="http://www.w3.org/2000/svg">
    <desc>Four separate rectangles
        <reticle scale="10"/>
    </desc>

    Show outline of viewport using 'rect' element
    <rect x="0" y="0" width="640" height="640"
          fill="white" stroke="blue" stroke-width="0.5"/>


    <defs>
        <circle id="dot320" r="0.6" cx="320" cy="320"/>
        <circle id="dot1px" r="1" cx="320" cy="320"/>
        <circle id="dot2px" r="2" cx="320" cy="320"/>
        <line id="dash_v_0.46" x1="320" y1="315" x2="320" y2="325" stroke="black" stroke-width="0.46"/>
        <line id="dash_v_0.46half" x1="320" y1="315" x2="320" y2="320" stroke="black" stroke-width="0.46"/>
        <line id="dash_h_0.3" y1="320" x1="317.8" y2="320" x2="322.2" stroke="black" stroke-width="0.3"/>
        <line id="dash_v_0.3" x1="320" y1="317.8" x2="320" y2="322.2" stroke="black" stroke-width="0.3"/>
        <line id="dash_v_0.3half" x1="320" y1="317.8" x2="320" y2="320" stroke="black" stroke-width="0.3"/>

        <g id="dashes_v_0.46">
            <use href="#dash_v_0.46" x="20"/>
            <use href="#dash_v_0.46" x="40"/>
            <use href="#dash_v_0.46" x="60"/>
            <use href="#dash_v_0.46" x="80"/>
            <use href="#dash_v_0.46" x="100"/>
            <use href="#dash_v_0.46" x="120"/>
            <use href="#dash_v_0.46" x="140"/>
            <use href="#dash_v_0.46" x="160"/>
            <use href="#dash_v_0.46" x="180"/>
            <use href="#dash_v_0.46" x="200"/>
            <use href="#dash_v_0.46" x="220"/>
            <use href="#dash_v_0.46" x="240"/>
            <use href="#dash_v_0.46" x="260"/>
            <use href="#dash_v_0.46" x="280"/>
            <use href="#dash_v_0.46" x="300"/>
        </g>
        <g id="dashes_v_0.3">
            <use href="#dash_h_0.3" y="4"/>
            <use href="#dash_h_0.3" y="8"/>
            <use href="#dash_h_0.3" y="12"/>
            <use href="#dash_h_0.3" y="16"/>
        </g>
        <g id="dashes_h_0.3">
            <use href="#dash_v_0.3" x="4"/>
            <use href="#dash_v_0.3" x="8"/>
            <use href="#dash_v_0.3" x="12"/>
            <use href="#dash_v_0.3" x="16"/>
        </g>
        <g id="ruler_y_half3">


            <g>
                <g id="ruler_y_half_0.46_left" stroke="black" stroke-width="0.46">
                    <use href="#dash_v_0.46half" x="20"/>
                    <use href="#dash_v_0.46half" x="40"/>
                    <use href="#dash_v_0.46half" x="60"/>
                </g>
                <use href="#ruler_y_half_0.46_left" transform="translate(640, 0) scale(-1, 1)"/>

                <!--            left -->
                <g id="ruler_y_half_0.3_left" stroke="black" stroke-width="0.3">
                    <use href="#dash_v_0.3half" x="4"/>
                    <use href="#dash_v_0.3half" x="8"/>
                    <use href="#dash_v_0.3half" x="12"/>
                    <use href="#dash_v_0.3half" x="16"/>
                </g>
                <use href="#ruler_y_half_0.3_left" x="20"/>
                <use href="#ruler_y_half_0.3_left" x="40"/>

                <!--            right -->
                <use href="#ruler_y_half_0.3_left" transform="translate(640, 0) scale(-1, 1)"/>
                <use href="#ruler_y_half_0.3_left" x="20" transform="translate(640, 0) scale(-1, 1)"/>
                <use href="#ruler_y_half_0.3_left" x="40" transform="translate(640, 0) scale(-1, 1)"/>
            </g>
        </g>
    </defs>

    <g id="reticle">s
        <g id="cross-dots" fill="black">
            <use href="#dot320" x="0" y="0"/>
            <use href="#dot320" x="0" y="40"/>
            <use href="#dot320" x="0" y="80"/>
            <use href="#dot320" x="0" y="120"/>
            <use href="#dot320" x="0" y="160"/>
            <use href="#dot320" x="0" y="200"/>
            <use href="#dot320" x="0" y="240"/>
            <use href="#dot320" x="0" y="280"/>
        </g>
        <g id="-0.5_dots" fill="black">
            <g id="left_-0.5_dots">
                <use href="#dot320" x="-2.858" y="10"/>
                <use href="#dot320" x="-5.715" y="10"/>
                <use href="#dot320" x="-8.572" y="10"/>
                <use href="#dot320" x="-11.429" y="10"/>
                <use href="#dot320" x="-14.286" y="10"/>
                <use href="#dot320" x="-17.143" y="10"/>
                <use href="#dot320" x="-20" y="10"/>
            </g>
            <use href="#left_-0.5_dots" transform="translate(640, 0) scale(-1, 1)"/>
        </g>
        <g id="-1_dots" fill="black">
            <g id="left_-1_dots">
                <use href="#dot1px" x="-4" y="22"/>
                <use href="#dot1px" x="-8" y="22"/>
                <use href="#dot1px" x="-12" y="22"/>
                <use href="#dot2px" x="-16" y="22"/>
                <use href="#dot1px" x="-20" y="22"/>
                <use href="#dot1px" x="-24" y="22"/>
                <use href="#dot1px" x="-28" y="22"/>
            </g>
            <use href="#left_-1_dots" transform="translate(640, 0) scale(-1, 1)"/>
        </g>
        <g id="-2_dots" fill="black">
            <g id="left_-2_dots">
                <use href="#dot1px" x="-6" y="42"/>
                <use href="#dot1px" x="-12" y="42"/>
                <use href="#dot1px" x="-18" y="42"/>
                <use href="#dot2px" x="-24" y="42"/>
                <use href="#dot1px" x="-30" y="42"/>
                <use href="#dot1px" x="-36" y="42"/>
                <use href="#dot1px" x="-42" y="42"/>
            </g>
            <use href="#left_-2_dots" transform="translate(640, 0) scale(-1, 1)"/>
        </g>
        <g id="-3_dots" fill="black">
            <g id="left_-3_dots">
                <use href="#dot1px" x="-7.7" y="62"/>
                <use href="#dot1px" x="-15.4" y="62"/>
                <use href="#dot1px" x="-23.1" y="62"/>
                <use href="#dot2px" x="-30.8" y="62"/>
                <use href="#dot1px" x="-38.5" y="62"/>
                <use href="#dot1px" x="-46.2" y="62"/>
                <use href="#dot1px" x="-53.9" y="62"/>
            </g>
            <use href="#left_-3_dots" transform="translate(640, 0) scale(-1, 1)"/>
        </g>
                <g id="-4_dots" fill="black">
            <g id="left_-4_dots">
                <use href="#dot1px" x="-9.5" y="82"/>
                <use href="#dot1px" x="-19" y="82"/>
                <use href="#dot1px" x="-28.5" y="82"/>
                <use href="#dot2px" x="-38" y="82"/>
                <use href="#dot1px" x="-47.5" y="82"/>
                <use href="#dot1px" x="-57" y="82"/>
                <use href="#dot1px" x="-66.5" y="82"/>

            </g>
            <use href="#left_-4_dots" transform="translate(640, 0) scale(-1, 1)"/>
        </g>
        <g id="cross" stroke="black" stroke-width="1.2">
            <line x1="20" y1="320" x2="317.5" y2="320"/>
            <line x1="322.5" y1="320" x2="620" y2="320"/>
            <line x1="320" y1="120" x2="320" y2="280"/>
            <line x1="320" y1="300" x2="320" y2="317.5"/>
            <line x1="320" y1="322.5" x2="320" y2="357.5"/>
            <line x1="320" y1="362.5" x2="320" y2="397.5"/>
            <line x1="320" y1="402.5" x2="320" y2="437.5"/>
            <line x1="320" y1="442.5" x2="320" y2="477.5"/>
            <line x1="320" y1="482.5" x2="320" y2="517.5"/>
            <line x1="320" y1="522.5" x2="320" y2="557.5"/>
            <line x1="320" y1="562.5" x2="320" y2="597.5"/>
            <line x1="320" y1="602.5" x2="320" y2="637.5"/>
        </g>
        <g id="lr-ruler" stroke="black" stroke-width="0.3">
            <line y1="282" x1="318" y2="282" x2="322"/>
            <line y1="284" x1="318" y2="284" x2="322"/>
            <line y1="286" x1="318" y2="286" x2="322"/>
            <line y1="288" x1="318" y2="288" x2="322"/>
            <line y1="290" x1="318" y2="290" x2="322"/>
            <line y1="292" x1="318" y2="292" x2="322"/>
            <line y1="294" x1="318" y2="294" x2="322"/>
            <line y1="296" x1="318" y2="296" x2="322"/>
            <line y1="298" x1="318" y2="298" x2="322"/>
        </g>
        <g id="ruler-h-1" stroke="black" stroke-width="0.46">
            <!--            <use href="#dashes_v_0.46" y="320"/>-->
            <use href="#dashes_v_0.46"/>
            <!--            <use href="#dashes_v_0.46" y="320" transform="translate(640, 0) scale(-1, 1)"/>-->
            <use href="#dashes_v_0.46" transform="translate(640, 0) scale(-1, 1)"/>
        </g>
        <g id="ruler-h-text" font-size="8" text-anchor="middle" dominant-baseline="middle"
           stroke="black" stroke-width="0.46">
            <text x="600" y="330">14</text>
            <text x="560" y="330">12</text>
            <text x="520" y="330">10</text>
            <text x="480" y="330">8</text>
            <text x="440" y="330">6</text>
            <text x="400" y="330">4</text>
            <text x="360" y="330">2</text>
            <text x="280" y="330">2</text>
            <text x="240" y="330">4</text>
            <text x="200" y="330">6</text>
            <text x="160" y="330">8</text>
            <text x="120" y="330">10</text>
            <text x="80" y="330">12</text>
            <text x="40" y="330">14</text>
        </g>
        <g id="ruler-v-t-text" font-size="8" text-anchor="middle" dominant-baseline="middle"
           stroke="black" stroke-width="0.46">
            <text y="280" x="330">2</text>
            <text y="240" x="330">4</text>
            <text y="200" x="330">6</text>
            <text y="160" x="330">8</text>
            <text y="120" x="330">10</text>
        </g>
        <g id="ruler-v-t-1" stroke="black" stroke-width="0.46">
            <line y1="120" x1="315" y2="120" x2="325"/>
            <line y1="140" x1="315" y2="140" x2="325"/>
            <line y1="160" x1="315" y2="160" x2="325"/>
            <line y1="180" x1="315" y2="180" x2="325"/>
            <line y1="200" x1="315" y2="200" x2="325"/>
            <line y1="220" x1="315" y2="220" x2="325"/>
            <line y1="240" x1="315" y2="240" x2="325"/>
            <line y1="260" x1="315" y2="260" x2="325"/>
            <line y1="280" x1="315" y2="280" x2="325"/>
            <!-- short one            -->
            <line y1="300" x1="316.5" y2="300" x2="323.5"/>
        </g>
        <g id="ruler-v-b-1" stroke="black" stroke-width="0.46">
            <defs>
                <line id="hline-6" y1="320" x1="260" y2="320" x2="380"/>
                <line id="hline-6h" y1="320" x1="260" y2="320" x2="317.5"/>
                <line id="hline-8" y1="320" x1="240" y2="320" x2="400"/>
                <line id="hline-8h" y1="320" x1="240" y2="320" x2="317.5"/>
                <line id="hline-10" y1="320" x1="220" y2="320" x2="420"/>
                <line id="hline-10h" y1="320" x1="220" y2="320" x2="317.5"/>
            </defs>
            <use href="#hline-6" y="20"/>
            <use href="#hline-6h" y="40"/>
            <use href="#hline-6h" y="40" x="62.5"/>
            <use href="#hline-6" y="60"/>
            <use href="#hline-6h" y="80"/>
            <use href="#hline-6h" y="80" x="62.5"/>
            <use href="#hline-8" y="100"/>
            <use href="#hline-8h" y="120"/>
            <use href="#hline-8h" y="120" x="82.5"/>
            <use href="#hline-8" y="140"/>
            <use href="#hline-8h" y="160"/>
            <use href="#hline-8h" y="160" x="82.5"/>
            <use href="#hline-10" y="180"/>
            <use href="#hline-10h" y="200"/>
            <use href="#hline-10h" y="200" x="102.5"/>
            <use href="#hline-10" y="220"/>
            <use href="#hline-10h" y="240"/>
            <use href="#hline-10h" y="240" x="102.5"/>
            <use href="#hline-10" y="260"/>
            <use href="#hline-10h" y="280"/>
            <use href="#hline-10h" y="280" x="102.5"/>
            <use href="#hline-10" y="300"/>
        </g>
        <g id="ruler-h-0.2" stroke="black" stroke-width="0.3">
            <use href="#dashes_h_0.3" x="-20"/>
            <use href="#dashes_h_0.3" x="-40"/>
            <use href="#dashes_h_0.3" x="-60"/>
            <use href="#dashes_h_0.3" x="-80"/>
            <use href="#dashes_h_0.3" x="-100"/>
            <use href="#dashes_h_0.3" x="-120"/>
            <use href="#dashes_h_0.3" x="-140"/>
            <use href="#dashes_h_0.3" x="-160"/>
            <use href="#dashes_h_0.3" x="-180"/>
            <use href="#dashes_h_0.3" x="-200"/>
            <use href="#dashes_h_0.3" x="-220"/>
            <use href="#dashes_h_0.3" x="-240"/>
            <use href="#dashes_h_0.3" x="-260"/>
            <use href="#dashes_h_0.3" x="-280"/>
            <use href="#dashes_h_0.3" x="-300"/>

            <use href="#dashes_h_0.3" x="0"/>
            <use href="#dashes_h_0.3" x="20"/>
            <use href="#dashes_h_0.3" x="40"/>
            <use href="#dashes_h_0.3" x="60"/>
            <use href="#dashes_h_0.3" x="80"/>
            <use href="#dashes_h_0.3" x="100"/>
            <use href="#dashes_h_0.3" x="120"/>
            <use href="#dashes_h_0.3" x="140"/>
            <use href="#dashes_h_0.3" x="160"/>
            <use href="#dashes_h_0.3" x="180"/>
            <use href="#dashes_h_0.3" x="200"/>
            <use href="#dashes_h_0.3" x="220"/>
            <use href="#dashes_h_0.3" x="240"/>
            <use href="#dashes_h_0.3" x="260"/>
            <use href="#dashes_h_0.3" x="280"/>
        </g>
        <g id="ruler-v-t-0.2" stroke="black" stroke-width="0.3">
            <use href="#dashes_v_0.3" y="-20"/>
            <use href="#dashes_v_0.3" y="-60"/>
            <use href="#dashes_v_0.3" y="-80"/>
            <use href="#dashes_v_0.3" y="-100"/>
            <use href="#dashes_v_0.3" y="-120"/>
            <use href="#dashes_v_0.3" y="-140"/>
            <use href="#dashes_v_0.3" y="-160"/>
            <use href="#dashes_v_0.3" y="-180"/>
            <use href="#dashes_v_0.3" y="-200"/>

        </g>
        <g id="ruler-v-b-0.2" stroke="black" stroke-width="0.3">
            <use href="#dashes_v_0.3" y="0"/>
            <use href="#dashes_v_0.3" y="20"/>
            <use href="#dashes_v_0.3" y="40"/>
            <use href="#dashes_v_0.3" y="60"/>
            <use href="#dashes_v_0.3" y="80"/>
            <use href="#dashes_v_0.3" y="100"/>
            <use href="#dashes_v_0.3" y="120"/>
            <use href="#dashes_v_0.3" y="140"/>
            <use href="#dashes_v_0.3" y="160"/>
            <use href="#dashes_v_0.3" y="180"/>
            <use href="#dashes_v_0.3" y="200"/>
            <use href="#dashes_v_0.3" y="220"/>
            <use href="#dashes_v_0.3" y="240"/>
            <use href="#dashes_v_0.3" y="260"/>
            <use href="#dashes_v_0.3" y="280"/>
            <use href="#dashes_v_0.3" y="300"/>
        </g>

        <g id="ruler_y-1_-4">
            <use href="#ruler_y_half3" y="20"/>
            <use href="#ruler_y_half3" y="40"/>
            <use href="#ruler_y_half3" y="60"/>
            <use href="#ruler_y_half3" y="80"/>
        </g>
        <g id="ruler_y-5_-8">

            <defs>
                <g id="ruler_y_half4">
                    <use href="#ruler_y_half3"/>
                    <use href="#dash_v_0.46half" x="80"/>
                    <use href="#dash_v_0.46half" x="80" transform="translate(640, 0) scale(-1, 1)"/>
                    <use href="#ruler_y_half_0.3_left" x="60"/>
                    <use href="#ruler_y_half_0.3_left" x="60" transform="translate(640, 0) scale(-1, 1)"/>
                </g>
            </defs>

            <use href="#ruler_y_half4" y="100"/>
            <use href="#ruler_y_half4" y="120"/>
            <use href="#ruler_y_half4" y="140"/>
            <use href="#ruler_y_half4" y="160"/>
        </g>
        <g id="ruler_y-9_15">

            <defs>
                <g id="ruler_y_half5">
                    <use href="#ruler_y_half4"/>
                    <use href="#dash_v_0.46half" x="100"/>
                    <use href="#dash_v_0.46half" x="100" transform="translate(640, 0) scale(-1, 1)"/>
                    <use href="#ruler_y_half_0.3_left" x="80"/>
                    <use href="#ruler_y_half_0.3_left" x="80" transform="translate(640, 0) scale(-1, 1)"/>
                </g>
            </defs>

            <use href="#ruler_y_half5" y="180"/>
            <use href="#ruler_y_half5" y="200"/>
            <use href="#ruler_y_half5" y="220"/>
            <use href="#ruler_y_half5" y="240"/>
            <use href="#ruler_y_half5" y="260"/>
            <use href="#ruler_y_half5" y="280"/>
            <use href="#ruler_y_half5" y="300"/>
        </g>

    </g>
</svg>